<?xml version="1.0" encoding="UTF-8" standalone="no"?>
<!-- Created with Inkscape (http://www.inkscape.org/) -->

<svg
   xmlns:dc="http://purl.org/dc/elements/1.1/"
   xmlns:cc="http://creativecommons.org/ns#"
   xmlns:rdf="http://www.w3.org/1999/02/22-rdf-syntax-ns#"
   xmlns:svg="http://www.w3.org/2000/svg"
   xmlns="http://www.w3.org/2000/svg"
   xmlns:sodipodi="http://sodipodi.sourceforge.net/DTD/sodipodi-0.dtd"
   xmlns:inkscape="http://www.inkscape.org/namespaces/inkscape"
   width="589.92908"
   height="589.92908"
   id="svg2"
   version="1.1"
   inkscape:version="0.48.4 r9939"
   sodipodi:docname="bucket.svg">
  <defs
     id="defs4" />
  <sodipodi:namedview
     id="base"
     pagecolor="#ffffff"
     bordercolor="#666666"
     borderopacity="1.0"
     inkscape:pageopacity="0.0"
     inkscape:pageshadow="2"
     inkscape:zoom="0.35"
     inkscape:cx="-235.63417"
     inkscape:cy="232.92819"
     inkscape:document-units="px"
     inkscape:current-layer="layer1"
     showgrid="false"
     fit-margin-top="0"
     fit-margin-left="0"
     fit-margin-right="0"
     fit-margin-bottom="0"
     inkscape:window-width="1920"
     inkscape:window-height="1003"
     inkscape:window-x="-9"
     inkscape:window-y="-9"
     inkscape:window-maximized="1" />
  <metadata
     id="metadata7">
    <rdf:RDF>
      <cc:Work
         rdf:about="">
        <dc:format>image/svg+xml</dc:format>
        <dc:type
           rdf:resource="http://purl.org/dc/dcmitype/StillImage" />
        <dc:title></dc:title>
      </cc:Work>
    </rdf:RDF>
  </metadata>
  <g
     inkscape:label="Layer 1"
     inkscape:groupmode="layer"
     id="layer1"
     transform="translate(-82.832512,-123.02184)">
    <path
       style="fill:#000000;fill-opacity:0.36554625;stroke:#000000;stroke-width:1px;stroke-linecap:butt;stroke-linejoin:miter;stroke-opacity:1"
       d="m 226.42857,395.93361 45,257.85714 80.71428,7.14286 137.14286,-2.85714 7.14286,-22.85714 35,-235.71429 z"
       id="path3761"
       inkscape:connector-curvature="0" />
    <path
       style="fill:#ffffff;fill-opacity:0.25210087;stroke:none"
       d="m 362.85714,400.93361 c 0,0 35,77.14286 31.42857,99.28571 -3.57143,22.14286 -42.85714,70.71429 -66.42857,72.14286 -23.57143,1.42857 -76.42857,-37.85714 -76.42857,-37.85714 L 230.71428,398.79075 z"
       id="path3765"
       inkscape:connector-curvature="0" />
    <path
       style="font-size:medium;font-style:normal;font-variant:normal;font-weight:normal;font-stretch:normal;text-indent:0;text-align:start;text-decoration:none;line-height:normal;letter-spacing:normal;word-spacing:normal;text-transform:none;direction:ltr;block-progression:tb;writing-mode:lr-tb;text-anchor:start;baseline-shift:baseline;color:#000000;fill:#000000;fill-opacity:1;stroke:none;stroke-width:15.10000038;marker:none;visibility:visible;display:inline;overflow:visible;enable-background:accumulate;font-family:Sans;-inkscape-font-specification:Sans"
       d="m 216.58377,386.55235 -1.6242,9.8539 c 0,0 14.72558,64.77225 25.26443,129.1664 5.26942,32.19708 13.68042,63.53126 17.90546,88.17735 2.11252,12.32305 3.9132,22.7312 5.3125,30.25 0.69965,3.7594 1.30154,6.77329 1.78125,9.03125 0.23986,1.12898 0.45097,2.07199 0.65625,2.875 0.20528,0.80301 -0.19969,0.74428 1.125,3.0625 2.48447,4.34781 4.02764,3.56627 5.0625,3.90625 1.03486,0.33998 1.9134,0.49761 2.9375,0.6875 2.04821,0.37979 4.54952,0.71864 7.625,1.03125 6.15097,0.62523 14.54315,1.21071 24.53125,1.75 19.9762,1.07858 46.27966,1.96289 72.6875,2.5 26.40784,0.53711 52.88827,0.70374 73.25,0.34375 10.18087,-0.17999 18.8155,-0.47967 25.28125,-0.96875 3.23288,-0.24454 5.90741,-0.51806 8.15625,-0.90625 1.12442,-0.1941 2.11796,-0.3972 3.21875,-0.75 1.10079,-0.3528 2.37533,-0.39489 4.46875,-2.75 1.88155,-2.11674 1.7383,-2.78819 2.09375,-3.78125 0.35545,-0.99306 0.64103,-2.05594 0.96875,-3.28125 0.65543,-2.45062 1.38084,-5.58844 2.1875,-9.4375 1.61332,-7.69812 3.56628,-18.1825 5.75,-30.5625 4.36743,-24.75999 9.62595,-57.06712 14.71875,-89.1875 10.1856,-64.24076 22.68671,-128.6664 22.68671,-128.6664 l 1.28125,-8.5625 -8.65625,-0.0937 -309.70115,-3.59375 -8.96875,-0.0937 z m 19.89286,20.60836 286.87158,-0.91071 c -1.14848,7.67585 -9.21759,79.13416 -14.74107,118.58036 -4.19555,29.9627 -9.6353,65.09034 -13.97322,89.68303 -2.16896,12.29634 -2.1577,20.13662 -6.01339,29.34822 -3.56212,6.79783 -5.01866,8.80689 -11.36607,9.29464 -5.92822,0.44842 -14.38622,0.76035 -24.40625,0.9375 -20.04005,0.3543 -46.41677,0.19057 -72.6875,-0.34375 -26.27073,-0.53432 -52.4762,-1.43572 -72.1875,-2.5 -9.85565,-0.53214 -18.10521,-1.10737 -23.8125,-1.6875 -1.94367,-0.19757 -7.5385,-0.82423 -8.80804,-1.00893 -2.89266,-13.57193 -4.83739,-25.23403 -6.8939,-36.32467 -4.21245,-24.57266 -10.69018,-60.01474 -16.35898,-92.12421 -11.8256,-66.98315 -14.35836,-105.02948 -15.62316,-112.94398 z"
       id="path2987"
       inkscape:connector-curvature="0"
       sodipodi:nodetypes="ccsssssssssssssssssssssccccccccasccssssccsc" />
    <path
       style="fill:#000000;fill-opacity:0.36554625;stroke:none"
       d="m 497.85714,407.36218 c 0,0 -12.14286,192.85714 -27.14286,212.85715 -15,20 -115,35 -115,35 l 110.71429,7.14285 20,-5 12.85714,-22.14285 32.14286,-237.14286 -32.14286,0 z"
       id="path3763"
       inkscape:connector-curvature="0" />
    <path
       style="fill:none;stroke:#000000;stroke-width:4.69999981;stroke-linecap:butt;stroke-linejoin:miter;stroke-miterlimit:4;stroke-opacity:1;stroke-dasharray:none"
       d="m 238.74263,398.79349 c 0,0 1.01015,-203.04066 142.43151,-194.95944 141.42135,8.08122 137.38074,189.90867 137.38074,189.90867 l -12.12183,5.05077 c 0,0 -3.00507,-180.66666 -125.25892,-183.84777 C 257.79935,211.73544 249.8543,394.75288 249.8543,394.75288 z"
       id="path3767"
       inkscape:connector-curvature="0"
       sodipodi:nodetypes="csccscc" />
    <path
       style="fill:#000000;fill-opacity:0.59607843;stroke:#000000;stroke-width:1px;stroke-linecap:butt;stroke-linejoin:miter;stroke-opacity:1"
       d="m 234.70202,393.23765 c 0,0 6.56599,-52.02286 10.6066,-66.67007 4.04061,-14.64721 30.30457,-77.27667 30.30457,-77.27667 l 48.48733,-42.42641 c 0,0 42.4264,-9.09137 44.44671,-9.09137 2.0203,0 31.8198,1.51523 33.84011,1.51523 2.0203,0 33.33503,13.63706 33.33503,13.63706 0,0 23.23351,14.64721 25.25382,16.16244 2.0203,1.51523 18.68782,18.68782 18.68782,18.68782 l 15.15229,23.23351 18.68782,44.95179 9.59645,81.82235 -15.15229,1.01016 c 0,0 -1.01015,-13.63706 -2.02031,-15.65737 -1.01015,-2.0203 -2.0203,-6.56599 -2.52538,-10.10152 -0.50507,-3.53554 -6.06091,-40.40611 -6.06091,-40.40611 l -12.12183,-33.33503 -8.5863,-19.1929 -12.12183,-22.72843 -21.2132,-20.70813 -22.72844,-13.63706 -23.2335,-8.08122 -31.31473,0 -30.30458,7.57615 -24.74874,15.65736 -19.1929,19.69798 -16.16244,29.7995 -15.65736,45.45686 -8.08122,35.86042 -2.52538,31.31472 z"
       id="path3771"
       inkscape:connector-curvature="0"
       sodipodi:nodetypes="csccsscscccccsscccccccccccccccc" />
    <path
       style="fill:#ca3300;fill-opacity:1;stroke:none;display:inline"
       d="m 330.55664,199.71947 c -2.2295,9.30058 -2.31091,26.26923 4.25508,29.80476 3.20066,1.72343 31.27109,-6.57835 45.18856,-6.49604 14.63349,0.0866 43.21542,8.42357 48.38579,4.67442 5.44518,-3.94841 4.41353,-21.04578 2.3722,-28.40156 -0.90079,-3.24592 -32.68654,-11.02298 -50.03988,-11.22317 -17.75026,-0.20477 -49.10977,7.25316 -50.16175,11.64159 z"
       id="path3773-1-3"
       inkscape:connector-curvature="0"
       sodipodi:nodetypes="sssssss" />
    <path
       style="fill:#7e2100;fill-opacity:1;stroke:none"
       d="m 421.95904,225.93114 c -7.07107,-1.51523 -5.42957,-9.97527 -11.49048,-9.97527 -6.06092,0 -8.9651,5.3033 -11.99556,5.3033 -3.03046,0 -5.68211,-6.31345 -12.75318,-7.3236 -7.07107,-1.01015 -9.34391,7.19734 -13.88959,6.69226 -4.54569,-0.50508 -9.34392,-5.17703 -15.40483,-4.67196 -6.06092,0.50508 -10.5955,9.17645 -14.14214,9.59645 -9.59645,1.13643 -12.37437,-11.23794 -13.8896,-16.2887 -1.51523,-5.05077 -0.88388,1.38895 -0.88388,1.38895 l 0.12627,9.34391 5.55584,11.61676 14.64721,-1.51523 27.7792,-5.05076 38.89087,6.06091 15.15229,2.52538 5.93464,-20.96067 c 0,0 -2.14657,-3.53552 -5.17703,5.55584 -2.17242,6.51725 -8.46003,7.70243 -8.46003,7.70243 z"
       id="path3775"
       inkscape:connector-curvature="0"
       sodipodi:nodetypes="csssssssccccccccsc" />
    <path
       style="fill:#7e2100;fill-opacity:1;stroke:none"
       d="m 429.99475,197.20234 c -7.07107,1.75592 -8.10814,7.98843 -14.88334,6.55986 -5.93052,-1.25047 -13.60796,-12.57431 -16.63842,-12.57431 -3.03046,0 -5.68211,7.31635 -12.75318,8.48697 -7.07107,1.17061 -9.34391,-8.34065 -13.88959,-7.75534 -4.54569,0.58531 -10.59392,9.39227 -16.65483,8.80697 -6.06092,-0.58531 -9.88121,-3.13415 -13.42785,-3.62087 -9.59644,-1.31695 -10.76722,5.88025 -12.28245,11.73334 -1.51523,5.85309 -1.95531,-5.35959 -1.95531,-5.35959 l 0.12627,-10.82821 8.77013,-1.14068 17.68291,-3.24407 21.5292,-1.46835 44.42659,4.40488 12.29515,2.4306 5.04179,12.68317 c 0,0 0.532,5.52571 -2.31989,-5.1884 -2.02146,-7.59432 -5.06718,-3.92597 -5.06718,-3.92597 z"
       id="path3775-1"
       inkscape:connector-curvature="0"
       sodipodi:nodetypes="csssssssccccccccsc" />
    <path
       style="fill:#000000;fill-opacity:1;stroke:#000000;stroke-width:1px;stroke-linecap:butt;stroke-linejoin:miter;stroke-opacity:1"
       d="m 380.34821,183.28125 c -16.27497,-0.26359 -46.35279,6.66633 -50.4375,7.6875 -8.08122,2.0203 -6.5625,10.09375 -6.5625,10.09375 0,0 4.80267,-1.78902 -12.875,8.3125 -17.67767,10.10153 -45.45241,36.39433 -62.625,90.4375 -17.17259,54.04316 -16.6875,89.875 -16.6875,89.875 l 0,4.5625 7.0625,0.5 c 0,0 2.02109,-23.74651 3.03125,-30.3125 1.01015,-6.56599 13.14261,-57.55711 20.71875,-76.75 7.57615,-19.1929 21.71177,-39.90513 34.84375,-55.5625 9.22799,-11.00261 15.95514,-15.81397 27.03125,-19.40625 3.04039,9.44344 2.58838,23.43827 7.84375,22.6875 8.3429,-1.19184 36.03787,-6.68274 50.09375,-6.125 15.72695,0.62405 45.67204,7.33727 49.21875,6.4375 3.09659,-0.78557 5.60463,-20.15795 6.65625,-19.53125 30.97502,18.45934 39.92741,29.00405 59.1875,68.96875 20.20305,41.92133 21.1875,113.125 21.1875,113.125 l 8.09375,0 c 0,0 0.004,-25.75364 -3.53125,-59.59375 -3.53553,-33.84011 -21.22429,-72.73682 -42.4375,-102.03125 -21.2132,-29.29442 -39.90625,-33.59375 -39.90625,-33.59375 0,0 -4.16793,-10.95542 -9.59375,-11.59375 -4.24629,-0.49956 -34.38894,-7.92959 -50.3125,-8.1875 z m 0.375,4.78125 c 17.35334,0.20019 49.13046,8.00408 50.03125,11.25 2.04133,7.35578 3.07018,24.42659 -2.375,28.375 -5.17037,3.74915 -33.74151,-4.56965 -48.375,-4.65625 -13.91747,-0.0823 -41.98684,8.22343 -45.1875,6.5 -6.56599,-3.53553 -6.4795,-20.51192 -4.25,-29.8125 1.05198,-4.38843 32.40599,-11.86102 50.15625,-11.65625 z"
       id="path3769"
       inkscape:connector-curvature="0" />
    <path
       style="fill:#000000;fill-opacity:1;stroke:none"
       d="m 380.00446,223.03125 c -13.91747,-0.0823 -41.98684,8.22343 -45.1875,6.5 -1.73437,-0.93389 -2.98532,-2.83048 -3.875,-5.25 l -5.21875,4.15625 -20.375,17.5 -15.34375,17.125 -10.71875,18.21875 -11.0625,23.21875 -6.78125,23.5625 -7.5,28.9375 -3.9375,36.78125 10,-1.78125 c 0,0 1.07589,-35.34821 13.21875,-71.0625 12.14286,-35.71429 18.20982,-50.00893 39.28125,-68.9375 21.07142,-18.92857 37.49107,-19.64286 63.5625,-20 26.07143,-0.35714 41.13437,2.97219 57.875,13.5625 19.04309,12.04688 34.98214,35.375 42.125,52.875 7.14285,17.5 16.44643,55.3616 17.875,73.21875 1.42857,17.85714 2.125,23.5625 2.125,23.5625 l 10.71875,-0.71875 -1.0625,-14.625 -6.09375,-36.8125 -9.625,-33.90625 -15.375,-33.59375 -23.1875,-31.40625 -21.8125,-16.78125 -0.6875,-0.15625 c -0.17747,0.1726 -0.3689,0.32836 -0.5625,0.46875 -5.17037,3.74915 -33.74151,-4.56965 -48.375,-4.65625 z"
       id="path3833"
       inkscape:connector-curvature="0" />
  </g>
  <g
     inkscape:groupmode="layer"
     id="layer2"
     inkscape:label="Layer"
     style="display:none"
     sodipodi:insensitive="true"
     transform="translate(-82.832512,-123.02184)">
    <path
       style="fill:#a22100;fill-opacity:1;stroke:none"
       d="m 336.27093,199.71947 c -2.2295,9.30058 -2.31091,26.26923 4.25508,29.80476 3.20066,1.72343 31.27109,-6.57835 45.18856,-6.49604 14.63349,0.0866 43.21542,8.42357 48.38579,4.67442 5.44518,-3.94841 4.41353,-21.04578 2.3722,-28.40156 -0.90079,-3.24592 -32.68654,-11.02298 -50.03988,-11.22317 -17.75026,-0.20477 -49.10977,7.25316 -50.16175,11.64159 z"
       id="path3773-1"
       inkscape:connector-curvature="0"
       sodipodi:nodetypes="sssssss" />
  </g>
</svg>
